<svg width="1400" height="900" xmlns="http://www.w3.org/2000/svg">
  <!-- Background -->
  <defs>
    <linearGradient id="bgGradient" x1="0%" y1="0%" x2="100%" y2="100%">
      <stop offset="0%" style="stop-color:#667eea;stop-opacity:1" />
      <stop offset="100%" style="stop-color:#764ba2;stop-opacity:1" />
    </linearGradient>
    <linearGradient id="headerGradient" x1="0%" y1="0%" x2="100%" y2="0%">
      <stop offset="0%" style="stop-color:#2c3e50;stop-opacity:1" />
      <stop offset="100%" style="stop-color:#34495e;stop-opacity:1" />
    </linearGradient>
  </defs>
  
  <!-- Background -->
  <rect width="1400" height="900" fill="url(#bgGradient)"/>
  
  <!-- Header -->
  <rect y="0" width="1400" height="120" fill="rgba(0,0,0,0.3)"/>
  <text x="700" y="50" font-size="48" font-weight="bold" text-anchor="middle" fill="white">Token Trading Table</text>
  <text x="700" y="90" font-size="18" text-anchor="middle" fill="rgba(255,255,255,0.9)">Real-time cryptocurrency trading data</text>
  
  <!-- Search Bar -->
  <rect x="220" y="140" width="960" height="50" rx="8" fill="rgba(255,255,255,0.95)"/>
  <text x="240" y="175" font-size="16" fill="#999">🔍 Search by token symbol or name...</text>
  
  <!-- Table Container -->
  <rect x="220" y="210" width="960" height="580" rx="12" fill="white" stroke="rgba(0,0,0,0.1)" stroke-width="1"/>
  
  <!-- Table Header -->
  <rect x="220" y="210" width="960" height="50" fill="url(#headerGradient)" rx="12 12 0 0"/>
  
  <!-- Header Text -->
  <text x="240" y="245" font-size="14" font-weight="600" fill="white">#</text>
  <text x="290" y="245" font-size="14" font-weight="600" fill="white">Token</text>
  <text x="500" y="245" font-size="14" font-weight="600" fill="white">Price ⇅</text>
  <text x="650" y="245" font-size="14" font-weight="600" fill="white">24h Change ⇅</text>
  <text x="810" y="245" font-size="14" font-weight="600" fill="white">Volume</text>
  <text x="950" y="245" font-size="14" font-weight="600" fill="white">Market Cap</text>
  <text x="1100" y="245" font-size="14" font-weight="600" fill="white">Supply</text>
  
  <!-- Row 1 - BTC -->
  <line x1="220" y1="270" x2="1180" y2="270" stroke="#ecf0f1" stroke-width="1"/>
  <circle cx="255" cy="290" r="18" fill="url(#bgGradient)"/>
  <text x="255" y="295" font-size="14" font-weight="bold" text-anchor="middle" fill="white">1</text>
  <text x="290" y="290" font-size="14" font-weight="700" fill="#2c3e50">BTC</text>
  <text x="290" y="310" font-size="12" fill="#7f8c8d">Bitcoin</text>
  <text x="500" y="305" font-size="14" font-weight="600" fill="#2c3e50">$42500.50</text>
  <rect x="650" y="280" width="130" height="28" rx="6" fill="#d5f4e6"/>
  <text x="660" y="303" font-size="12" font-weight="600" fill="#27ae60">▲ 2.50%</text>
  <text x="810" y="305" font-size="14" fill="#34495e">$28.50B</text>
  <text x="950" y="305" font-size="14" fill="#34495e">$850.00B</text>
  <text x="1100" y="305" font-size="14" fill="#34495e">21.00M</text>
  
  <!-- Row 2 - ETH -->
  <line x1="220" y1="330" x2="1180" y2="330" stroke="#ecf0f1" stroke-width="1"/>
  <circle cx="255" cy="350" r="18" fill="url(#bgGradient)"/>
  <text x="255" y="355" font-size="14" font-weight="bold" text-anchor="middle" fill="white">2</text>
  <text x="290" y="350" font-size="14" font-weight="700" fill="#2c3e50">ETH</text>
  <text x="290" y="370" font-size="12" fill="#7f8c8d">Ethereum</text>
  <text x="500" y="365" font-size="14" font-weight="600" fill="#2c3e50">$2250.75</text>
  <rect x="650" y="340" width="130" height="28" rx="6" fill="#d5f4e6"/>
  <text x="660" y="363" font-size="12" font-weight="600" fill="#27ae60">▲ 1.80%</text>
  <text x="810" y="365" font-size="14" fill="#34495e">$18.20B</text>
  <text x="950" y="365" font-size="14" fill="#34495e">$270.00B</text>
  <text x="1100" y="365" font-size="14" fill="#34495e">120.00M</text>
  
  <!-- Row 3 - XRP -->
  <line x1="220" y1="390" x2="1180" y2="390" stroke="#ecf0f1" stroke-width="1"/>
  <circle cx="255" cy="410" r="18" fill="url(#bgGradient)"/>
  <text x="255" y="415" font-size="14" font-weight="bold" text-anchor="middle" fill="white">3</text>
  <text x="290" y="410" font-size="14" font-weight="700" fill="#2c3e50">XRP</text>
  <text x="290" y="430" font-size="12" fill="#7f8c8d">Ripple</text>
  <text x="500" y="425" font-size="14" font-weight="600" fill="#2c3e50">$2.85</text>
  <rect x="650" y="400" width="130" height="28" rx="6" fill="#d5f4e6"/>
  <text x="660" y="423" font-size="12" font-weight="600" fill="#27ae60">▲ 3.20%</text>
  <text x="810" y="425" font-size="14" fill="#34495e">$3.50B</text>
  <text x="950" y="425" font-size="14" fill="#34495e">$155.00B</text>
  <text x="1100" y="425" font-size="14" fill="#34495e">99.00B</text>
  
  <!-- Row 4 - BNB -->
  <line x1="220" y1="450" x2="1180" y2="450" stroke="#ecf0f1" stroke-width="1"/>
  <circle cx="255" cy="470" r="18" fill="url(#bgGradient)"/>
  <text x="255" y="475" font-size="14" font-weight="bold" text-anchor="middle" fill="white">4</text>
  <text x="290" y="470" font-size="14" font-weight="700" fill="#2c3e50">BNB</text>
  <text x="290" y="490" font-size="12" fill="#7f8c8d">Binance Coin</text>
  <text x="500" y="485" font-size="14" font-weight="600" fill="#2c3e50">$612.30</text>
  <rect x="650" y="460" width="130" height="28" rx="6" fill="#d5f4e6"/>
  <text x="660" y="483" font-size="12" font-weight="600" fill="#27ae60">▲ 0.95%</text>
  <text x="810" y="485" font-size="14" fill="#34495e">$1.20B</text>
  <text x="950" y="485" font-size="14" fill="#34495e">$95.00B</text>
  <text x="1100" y="485" font-size="14" fill="#34495e">155.00M</text>
  
  <!-- Row 5 - SOL -->
  <line x1="220" y1="510" x2="1180" y2="510" stroke="#ecf0f1" stroke-width="1"/>
  <circle cx="255" cy="530" r="18" fill="url(#bgGradient)"/>
  <text x="255" y="535" font-size="14" font-weight="bold" text-anchor="middle" fill="white">5</text>
  <text x="290" y="530" font-size="14" font-weight="700" fill="#2c3e50">SOL</text>
  <text x="290" y="550" font-size="12" fill="#7f8c8d">Solana</text>
  <text x="500" y="545" font-size="14" font-weight="600" fill="#2c3e50">$198.45</text>
  <rect x="650" y="520" width="130" height="28" rx="6" fill="#d5f4e6"/>
  <text x="660" y="543" font-size="12" font-weight="600" fill="#27ae60">▲ 5.20%</text>
  <text x="810" y="545" font-size="14" fill="#34495e">$2.80B</text>
  <text x="950" y="545" font-size="14" fill="#34495e">$65.00B</text>
  <text x="1100" y="545" font-size="14" fill="#34495e">328.00M</text>
  
  <!-- Row 6 - ADA (Negative) -->
  <line x1="220" y1="570" x2="1180" y2="570" stroke="#ecf0f1" stroke-width="1"/>
  <circle cx="255" cy="590" r="18" fill="url(#bgGradient)"/>
  <text x="255" y="595" font-size="14" font-weight="bold" text-anchor="middle" fill="white">6</text>
  <text x="290" y="590" font-size="14" font-weight="700" fill="#2c3e50">ADA</text>
  <text x="290" y="610" font-size="12" fill="#7f8c8d">Cardano</text>
  <text x="500" y="605" font-size="14" font-weight="600" fill="#2c3e50">$1.05</text>
  <rect x="650" y="580" width="130" height="28" rx="6" fill="#fadbd8"/>
  <text x="660" y="603" font-size="12" font-weight="600" fill="#e74c3c">▼ 0.50%</text>
  <text x="810" y="605" font-size="14" fill="#34495e">$950.00M</text>
  <text x="950" y="605" font-size="14" fill="#34495e">$38.00B</text>
  <text x="1100" y="605" font-size="14" fill="#34495e">36.00B</text>
  
  <!-- Footer -->
  <rect y="800" width="1400" height="100" fill="rgba(0,0,0,0.5)"/>
  <text x="700" y="850" font-size="14" text-anchor="middle" fill="rgba(255,255,255,0.8)">© 2025 Token Trading Platform. All rights reserved.</text>
</svg>
